<mxfile host="app.diagrams.net" modified="2024-06-08T11:37:56.177Z" agent="Mozilla/5.0 (Macintosh; Intel Mac OS X 10_15_7) AppleWebKit/537.36 (KHTML, like Gecko) Chrome/125.0.0.0 Safari/537.36" etag="Fc_1juHHFRk0XpRWPZ5C" version="23.1.8" type="github">
  <diagram name="Page-1" id="fB48l3c0-zW3iNob_ZMR">
    <mxGraphModel dx="2899" dy="1123" grid="1" gridSize="10" guides="1" tooltips="1" connect="1" arrows="1" fold="1" page="1" pageScale="1" pageWidth="850" pageHeight="1100" math="0" shadow="0">
      <root>
        <mxCell id="0" />
        <mxCell id="1" parent="0" />
        <mxCell id="VEP944i0mX4ukVrG3i8q-1" value="&lt;br&gt;Lily and Ben were bored. They wanted to play outside, but it was raining. They looked around the house for something fun to do. They saw a big box in the corner. It had a sign that said &quot;Do not open&quot;.&lt;br&gt;&quot;What is in there?&quot; Lily asked.&lt;br&gt;&quot;I don&#39;t know. Let&#39;s find out,&quot; Ben said.&lt;br&gt;They opened the box and saw many smaller boxes inside. They had holes and flaps and strings. They looked like a maze.&lt;br&gt;&quot;Wow, this is cool. Let&#39;s make a maze with the boxes,&quot; Lily said.&lt;br&gt;They took out the boxes and arranged them on the floor. They made a long and twisty maze with many turns and dead ends. They crawled inside and explored the maze. They had fun finding each other and hiding and making noises.&lt;br&gt;They did not hear their mom come home. She walked into the living room and saw the mess. She was grumpy.&lt;br&gt;&quot;What are you doing? Look at this mess. You are not supposed to open that box. It is for the charity sale,&quot; she said.&lt;br&gt;Lily and Ben came out of the maze. They looked at their mom. They were sorry.&lt;br&gt;&quot;We are sorry, mom. We were bored. We wanted to play. We discovered a maze in the box. It was fun,&quot; Lily said.&lt;br&gt;Ben nodded. He said, &quot;We are sorry, mom. We did not know. We will help you clean up.&quot;&lt;br&gt;Their mom sighed. She was not so grumpy anymore. She saw that they were just curious and creative. She smiled.&lt;br&gt;&quot;It&#39;s okay, kids. I understand. But next time, please ask me before you open a box. And please be careful with the boxes. They are for a good cause. Now, let&#39;s clean up and then we can have a snack. How about that?&quot; she said.&lt;br&gt;Lily and Ben smiled. They said, &quot;Okay, mom. Thank you, mom. We love you, mom.&quot;&lt;br&gt;They hugged their mom and helped her clean up the maze. They learned a lesson and had a snack. They were happy." style="text;html=1;spacing=5;spacingTop=-20;whiteSpace=wrap;overflow=hidden;rounded=0;" vertex="1" parent="1">
          <mxGeometry x="50" y="40" width="860" height="270" as="geometry" />
        </mxCell>
        <mxCell id="VEP944i0mX4ukVrG3i8q-37" value="person" style="swimlane;fontStyle=0;childLayout=stackLayout;horizontal=1;startSize=30;horizontalStack=0;resizeParent=1;resizeParentMax=0;resizeLast=0;collapsible=1;marginBottom=0;whiteSpace=wrap;html=1;" vertex="1" parent="1">
          <mxGeometry x="60" y="390" width="140" height="120" as="geometry" />
        </mxCell>
        <mxCell id="VEP944i0mX4ukVrG3i8q-38" value="[]" style="text;strokeColor=none;fillColor=none;align=left;verticalAlign=middle;spacingLeft=4;spacingRight=4;overflow=hidden;points=[[0,0.5],[1,0.5]];portConstraint=eastwest;rotatable=0;whiteSpace=wrap;html=1;" vertex="1" parent="VEP944i0mX4ukVrG3i8q-37">
          <mxGeometry y="30" width="140" height="30" as="geometry" />
        </mxCell>
        <mxCell id="VEP944i0mX4ukVrG3i8q-39" value="&amp;lt;- name" style="text;strokeColor=none;fillColor=none;align=left;verticalAlign=middle;spacingLeft=4;spacingRight=4;overflow=hidden;points=[[0,0.5],[1,0.5]];portConstraint=eastwest;rotatable=0;whiteSpace=wrap;html=1;" vertex="1" parent="VEP944i0mX4ukVrG3i8q-37">
          <mxGeometry y="60" width="140" height="30" as="geometry" />
        </mxCell>
        <mxCell id="VEP944i0mX4ukVrG3i8q-40" value="&amp;lt;- age" style="text;strokeColor=none;fillColor=none;align=left;verticalAlign=middle;spacingLeft=4;spacingRight=4;overflow=hidden;points=[[0,0.5],[1,0.5]];portConstraint=eastwest;rotatable=0;whiteSpace=wrap;html=1;" vertex="1" parent="VEP944i0mX4ukVrG3i8q-37">
          <mxGeometry y="90" width="140" height="30" as="geometry" />
        </mxCell>
        <mxCell id="VEP944i0mX4ukVrG3i8q-45" value="name" style="swimlane;fontStyle=0;childLayout=stackLayout;horizontal=1;startSize=30;horizontalStack=0;resizeParent=1;resizeParentMax=0;resizeLast=0;collapsible=1;marginBottom=0;whiteSpace=wrap;html=1;" vertex="1" parent="1">
          <mxGeometry x="70" y="540" width="140" height="90" as="geometry" />
        </mxCell>
        <mxCell id="VEP944i0mX4ukVrG3i8q-46" value="[lily]" style="text;strokeColor=none;fillColor=none;align=left;verticalAlign=middle;spacingLeft=4;spacingRight=4;overflow=hidden;points=[[0,0.5],[1,0.5]];portConstraint=eastwest;rotatable=0;whiteSpace=wrap;html=1;" vertex="1" parent="VEP944i0mX4ukVrG3i8q-45">
          <mxGeometry y="30" width="140" height="30" as="geometry" />
        </mxCell>
        <mxCell id="VEP944i0mX4ukVrG3i8q-48" value="&amp;lt;- target" style="text;strokeColor=none;fillColor=none;align=left;verticalAlign=middle;spacingLeft=4;spacingRight=4;overflow=hidden;points=[[0,0.5],[1,0.5]];portConstraint=eastwest;rotatable=0;whiteSpace=wrap;html=1;" vertex="1" parent="VEP944i0mX4ukVrG3i8q-45">
          <mxGeometry y="60" width="140" height="30" as="geometry" />
        </mxCell>
        <mxCell id="VEP944i0mX4ukVrG3i8q-53" style="edgeStyle=orthogonalEdgeStyle;rounded=0;orthogonalLoop=1;jettySize=auto;html=1;entryX=0;entryY=0.25;entryDx=0;entryDy=0;" edge="1" parent="1" source="VEP944i0mX4ukVrG3i8q-39" target="VEP944i0mX4ukVrG3i8q-45">
          <mxGeometry relative="1" as="geometry">
            <Array as="points">
              <mxPoint x="10" y="470" />
              <mxPoint x="10" y="563" />
              <mxPoint x="60" y="563" />
            </Array>
          </mxGeometry>
        </mxCell>
        <mxCell id="VEP944i0mX4ukVrG3i8q-54" style="edgeStyle=orthogonalEdgeStyle;rounded=0;orthogonalLoop=1;jettySize=auto;html=1;entryX=-0.016;entryY=0.121;entryDx=0;entryDy=0;entryPerimeter=0;" edge="1" parent="1" source="VEP944i0mX4ukVrG3i8q-48" target="VEP944i0mX4ukVrG3i8q-37">
          <mxGeometry relative="1" as="geometry">
            <mxPoint x="-80" y="400" as="targetPoint" />
            <Array as="points">
              <mxPoint x="-20" y="615" />
              <mxPoint x="-20" y="405" />
            </Array>
          </mxGeometry>
        </mxCell>
        <mxCell id="VEP944i0mX4ukVrG3i8q-55" value="person" style="swimlane;fontStyle=0;childLayout=stackLayout;horizontal=1;startSize=30;horizontalStack=0;resizeParent=1;resizeParentMax=0;resizeLast=0;collapsible=1;marginBottom=0;whiteSpace=wrap;html=1;" vertex="1" parent="1">
          <mxGeometry x="-30" y="790" width="140" height="120" as="geometry" />
        </mxCell>
        <mxCell id="VEP944i0mX4ukVrG3i8q-56" value="[]" style="text;strokeColor=none;fillColor=none;align=left;verticalAlign=middle;spacingLeft=4;spacingRight=4;overflow=hidden;points=[[0,0.5],[1,0.5]];portConstraint=eastwest;rotatable=0;whiteSpace=wrap;html=1;" vertex="1" parent="VEP944i0mX4ukVrG3i8q-55">
          <mxGeometry y="30" width="140" height="30" as="geometry" />
        </mxCell>
        <mxCell id="VEP944i0mX4ukVrG3i8q-57" value="&amp;lt;- name" style="text;strokeColor=none;fillColor=none;align=left;verticalAlign=middle;spacingLeft=4;spacingRight=4;overflow=hidden;points=[[0,0.5],[1,0.5]];portConstraint=eastwest;rotatable=0;whiteSpace=wrap;html=1;" vertex="1" parent="VEP944i0mX4ukVrG3i8q-55">
          <mxGeometry y="60" width="140" height="30" as="geometry" />
        </mxCell>
        <mxCell id="VEP944i0mX4ukVrG3i8q-58" value="&amp;lt;- age" style="text;strokeColor=none;fillColor=none;align=left;verticalAlign=middle;spacingLeft=4;spacingRight=4;overflow=hidden;points=[[0,0.5],[1,0.5]];portConstraint=eastwest;rotatable=0;whiteSpace=wrap;html=1;" vertex="1" parent="VEP944i0mX4ukVrG3i8q-55">
          <mxGeometry y="90" width="140" height="30" as="geometry" />
        </mxCell>
        <mxCell id="VEP944i0mX4ukVrG3i8q-59" value="name" style="swimlane;fontStyle=0;childLayout=stackLayout;horizontal=1;startSize=30;horizontalStack=0;resizeParent=1;resizeParentMax=0;resizeLast=0;collapsible=1;marginBottom=0;whiteSpace=wrap;html=1;" vertex="1" parent="1">
          <mxGeometry x="-20" y="940" width="140" height="90" as="geometry" />
        </mxCell>
        <mxCell id="VEP944i0mX4ukVrG3i8q-60" value="[ben]" style="text;strokeColor=none;fillColor=none;align=left;verticalAlign=middle;spacingLeft=4;spacingRight=4;overflow=hidden;points=[[0,0.5],[1,0.5]];portConstraint=eastwest;rotatable=0;whiteSpace=wrap;html=1;" vertex="1" parent="VEP944i0mX4ukVrG3i8q-59">
          <mxGeometry y="30" width="140" height="30" as="geometry" />
        </mxCell>
        <mxCell id="VEP944i0mX4ukVrG3i8q-61" value="&amp;lt;- target" style="text;strokeColor=none;fillColor=none;align=left;verticalAlign=middle;spacingLeft=4;spacingRight=4;overflow=hidden;points=[[0,0.5],[1,0.5]];portConstraint=eastwest;rotatable=0;whiteSpace=wrap;html=1;" vertex="1" parent="VEP944i0mX4ukVrG3i8q-59">
          <mxGeometry y="60" width="140" height="30" as="geometry" />
        </mxCell>
        <mxCell id="VEP944i0mX4ukVrG3i8q-62" style="edgeStyle=orthogonalEdgeStyle;rounded=0;orthogonalLoop=1;jettySize=auto;html=1;entryX=0;entryY=0.25;entryDx=0;entryDy=0;" edge="1" parent="1" source="VEP944i0mX4ukVrG3i8q-57" target="VEP944i0mX4ukVrG3i8q-59">
          <mxGeometry relative="1" as="geometry">
            <Array as="points">
              <mxPoint x="-80" y="870" />
              <mxPoint x="-80" y="963" />
              <mxPoint x="-30" y="963" />
            </Array>
          </mxGeometry>
        </mxCell>
        <mxCell id="VEP944i0mX4ukVrG3i8q-63" style="edgeStyle=orthogonalEdgeStyle;rounded=0;orthogonalLoop=1;jettySize=auto;html=1;entryX=-0.016;entryY=0.121;entryDx=0;entryDy=0;entryPerimeter=0;" edge="1" parent="1" source="VEP944i0mX4ukVrG3i8q-61" target="VEP944i0mX4ukVrG3i8q-55">
          <mxGeometry relative="1" as="geometry">
            <mxPoint x="-170" y="800" as="targetPoint" />
            <Array as="points">
              <mxPoint x="-110" y="1015" />
              <mxPoint x="-110" y="805" />
            </Array>
          </mxGeometry>
        </mxCell>
        <mxCell id="VEP944i0mX4ukVrG3i8q-64" value="group of people" style="swimlane;fontStyle=0;childLayout=stackLayout;horizontal=1;startSize=30;horizontalStack=0;resizeParent=1;resizeParentMax=0;resizeLast=0;collapsible=1;marginBottom=0;whiteSpace=wrap;html=1;" vertex="1" parent="1">
          <mxGeometry x="250" y="690" width="140" height="90" as="geometry" />
        </mxCell>
        <mxCell id="VEP944i0mX4ukVrG3i8q-65" value="[]" style="text;strokeColor=none;fillColor=none;align=left;verticalAlign=middle;spacingLeft=4;spacingRight=4;overflow=hidden;points=[[0,0.5],[1,0.5]];portConstraint=eastwest;rotatable=0;whiteSpace=wrap;html=1;" vertex="1" parent="VEP944i0mX4ukVrG3i8q-64">
          <mxGeometry y="30" width="140" height="30" as="geometry" />
        </mxCell>
        <mxCell id="VEP944i0mX4ukVrG3i8q-66" value="&amp;lt;- person" style="text;strokeColor=none;fillColor=none;align=left;verticalAlign=middle;spacingLeft=4;spacingRight=4;overflow=hidden;points=[[0,0.5],[1,0.5]];portConstraint=eastwest;rotatable=0;whiteSpace=wrap;html=1;" vertex="1" parent="VEP944i0mX4ukVrG3i8q-64">
          <mxGeometry y="60" width="140" height="30" as="geometry" />
        </mxCell>
        <mxCell id="VEP944i0mX4ukVrG3i8q-68" style="edgeStyle=orthogonalEdgeStyle;rounded=0;orthogonalLoop=1;jettySize=auto;html=1;entryX=1.004;entryY=0.136;entryDx=0;entryDy=0;entryPerimeter=0;" edge="1" parent="1" source="VEP944i0mX4ukVrG3i8q-66" target="VEP944i0mX4ukVrG3i8q-37">
          <mxGeometry relative="1" as="geometry" />
        </mxCell>
        <mxCell id="VEP944i0mX4ukVrG3i8q-69" style="edgeStyle=orthogonalEdgeStyle;rounded=0;orthogonalLoop=1;jettySize=auto;html=1;entryX=0.5;entryY=0;entryDx=0;entryDy=0;" edge="1" parent="1" source="VEP944i0mX4ukVrG3i8q-66" target="VEP944i0mX4ukVrG3i8q-55">
          <mxGeometry relative="1" as="geometry" />
        </mxCell>
        <mxCell id="VEP944i0mX4ukVrG3i8q-73" value="something want to play in place" style="swimlane;fontStyle=0;childLayout=stackLayout;horizontal=1;startSize=30;horizontalStack=0;resizeParent=1;resizeParentMax=0;resizeLast=0;collapsible=1;marginBottom=0;whiteSpace=wrap;html=1;" vertex="1" parent="1">
          <mxGeometry x="500" y="690" width="300" height="90" as="geometry" />
        </mxCell>
        <mxCell id="VEP944i0mX4ukVrG3i8q-74" value="&amp;lt;- something" style="text;strokeColor=none;fillColor=none;align=left;verticalAlign=middle;spacingLeft=4;spacingRight=4;overflow=hidden;points=[[0,0.5],[1,0.5]];portConstraint=eastwest;rotatable=0;whiteSpace=wrap;html=1;" vertex="1" parent="VEP944i0mX4ukVrG3i8q-73">
          <mxGeometry y="30" width="300" height="30" as="geometry" />
        </mxCell>
        <mxCell id="VEP944i0mX4ukVrG3i8q-75" value="&amp;lt;- place" style="text;strokeColor=none;fillColor=none;align=left;verticalAlign=middle;spacingLeft=4;spacingRight=4;overflow=hidden;points=[[0,0.5],[1,0.5]];portConstraint=eastwest;rotatable=0;whiteSpace=wrap;html=1;" vertex="1" parent="VEP944i0mX4ukVrG3i8q-73">
          <mxGeometry y="60" width="300" height="30" as="geometry" />
        </mxCell>
        <mxCell id="VEP944i0mX4ukVrG3i8q-77" style="edgeStyle=orthogonalEdgeStyle;rounded=0;orthogonalLoop=1;jettySize=auto;html=1;entryX=1.021;entryY=0.156;entryDx=0;entryDy=0;entryPerimeter=0;" edge="1" parent="1" source="VEP944i0mX4ukVrG3i8q-74" target="VEP944i0mX4ukVrG3i8q-64">
          <mxGeometry relative="1" as="geometry" />
        </mxCell>
        <mxCell id="VEP944i0mX4ukVrG3i8q-78" value="out side of some place" style="swimlane;fontStyle=0;childLayout=stackLayout;horizontal=1;startSize=30;horizontalStack=0;resizeParent=1;resizeParentMax=0;resizeLast=0;collapsible=1;marginBottom=0;whiteSpace=wrap;html=1;" vertex="1" parent="1">
          <mxGeometry x="340" y="900" width="210" height="90" as="geometry" />
        </mxCell>
        <mxCell id="VEP944i0mX4ukVrG3i8q-79" value="[]" style="text;strokeColor=none;fillColor=none;align=left;verticalAlign=middle;spacingLeft=4;spacingRight=4;overflow=hidden;points=[[0,0.5],[1,0.5]];portConstraint=eastwest;rotatable=0;whiteSpace=wrap;html=1;" vertex="1" parent="VEP944i0mX4ukVrG3i8q-78">
          <mxGeometry y="30" width="210" height="30" as="geometry" />
        </mxCell>
        <mxCell id="VEP944i0mX4ukVrG3i8q-80" value="&amp;lt;- some place" style="text;strokeColor=none;fillColor=none;align=left;verticalAlign=middle;spacingLeft=4;spacingRight=4;overflow=hidden;points=[[0,0.5],[1,0.5]];portConstraint=eastwest;rotatable=0;whiteSpace=wrap;html=1;" vertex="1" parent="VEP944i0mX4ukVrG3i8q-78">
          <mxGeometry y="60" width="210" height="30" as="geometry" />
        </mxCell>
        <mxCell id="VEP944i0mX4ukVrG3i8q-82" style="edgeStyle=orthogonalEdgeStyle;rounded=0;orthogonalLoop=1;jettySize=auto;html=1;" edge="1" parent="1" source="VEP944i0mX4ukVrG3i8q-75" target="VEP944i0mX4ukVrG3i8q-78">
          <mxGeometry relative="1" as="geometry" />
        </mxCell>
        <mxCell id="VEP944i0mX4ukVrG3i8q-83" value="Raining" style="swimlane;fontStyle=0;childLayout=stackLayout;horizontal=1;startSize=30;horizontalStack=0;resizeParent=1;resizeParentMax=0;resizeLast=0;collapsible=1;marginBottom=0;whiteSpace=wrap;html=1;" vertex="1" parent="1">
          <mxGeometry x="340" y="1100" width="140" height="60" as="geometry" />
        </mxCell>
        <mxCell id="VEP944i0mX4ukVrG3i8q-84" value="[]" style="text;strokeColor=none;fillColor=none;align=left;verticalAlign=middle;spacingLeft=4;spacingRight=4;overflow=hidden;points=[[0,0.5],[1,0.5]];portConstraint=eastwest;rotatable=0;whiteSpace=wrap;html=1;" vertex="1" parent="VEP944i0mX4ukVrG3i8q-83">
          <mxGeometry y="30" width="140" height="30" as="geometry" />
        </mxCell>
        <mxCell id="VEP944i0mX4ukVrG3i8q-99" value="" style="endArrow=classic;html=1;rounded=0;" edge="1" parent="1">
          <mxGeometry relative="1" as="geometry">
            <mxPoint x="770" y="1340" as="sourcePoint" />
            <mxPoint x="870" y="1340" as="targetPoint" />
          </mxGeometry>
        </mxCell>
        <mxCell id="VEP944i0mX4ukVrG3i8q-100" value="" style="shape=message;html=1;outlineConnect=0;" vertex="1" parent="VEP944i0mX4ukVrG3i8q-99">
          <mxGeometry width="20" height="14" relative="1" as="geometry">
            <mxPoint x="-10" y="-7" as="offset" />
          </mxGeometry>
        </mxCell>
        <mxCell id="VEP944i0mX4ukVrG3i8q-101" style="edgeStyle=orthogonalEdgeStyle;rounded=0;orthogonalLoop=1;jettySize=auto;html=1;exitX=0.5;exitY=0;exitDx=0;exitDy=0;entryX=1.002;entryY=0.174;entryDx=0;entryDy=0;entryPerimeter=0;" edge="1" parent="1" source="VEP944i0mX4ukVrG3i8q-100" target="VEP944i0mX4ukVrG3i8q-73">
          <mxGeometry relative="1" as="geometry">
            <mxPoint x="720" y="860" as="targetPoint" />
            <Array as="points">
              <mxPoint x="820" y="1323" />
              <mxPoint x="820" y="706" />
            </Array>
          </mxGeometry>
        </mxCell>
        <mxCell id="VEP944i0mX4ukVrG3i8q-103" value="" style="endArrow=classic;html=1;rounded=0;" edge="1" parent="1">
          <mxGeometry relative="1" as="geometry">
            <mxPoint x="870" y="1340" as="sourcePoint" />
            <mxPoint x="970" y="1340" as="targetPoint" />
          </mxGeometry>
        </mxCell>
        <mxCell id="VEP944i0mX4ukVrG3i8q-104" value="" style="shape=message;html=1;outlineConnect=0;" vertex="1" parent="VEP944i0mX4ukVrG3i8q-103">
          <mxGeometry width="20" height="14" relative="1" as="geometry">
            <mxPoint x="-10" y="-7" as="offset" />
          </mxGeometry>
        </mxCell>
        <mxCell id="VEP944i0mX4ukVrG3i8q-105" style="edgeStyle=orthogonalEdgeStyle;rounded=0;orthogonalLoop=1;jettySize=auto;html=1;exitX=0.5;exitY=1;exitDx=0;exitDy=0;entryX=1;entryY=0.25;entryDx=0;entryDy=0;" edge="1" parent="1" source="VEP944i0mX4ukVrG3i8q-104" target="VEP944i0mX4ukVrG3i8q-83">
          <mxGeometry relative="1" as="geometry">
            <mxPoint x="560" y="1430" as="targetPoint" />
            <Array as="points">
              <mxPoint x="920" y="1388" />
              <mxPoint x="600" y="1388" />
              <mxPoint x="600" y="1115" />
            </Array>
          </mxGeometry>
        </mxCell>
        <mxCell id="VEP944i0mX4ukVrG3i8q-106" value="" style="endArrow=classic;html=1;rounded=0;" edge="1" parent="1">
          <mxGeometry relative="1" as="geometry">
            <mxPoint x="970" y="1340" as="sourcePoint" />
            <mxPoint x="1070" y="1340" as="targetPoint" />
          </mxGeometry>
        </mxCell>
        <mxCell id="VEP944i0mX4ukVrG3i8q-107" value="" style="shape=message;html=1;outlineConnect=0;" vertex="1" parent="VEP944i0mX4ukVrG3i8q-106">
          <mxGeometry width="20" height="14" relative="1" as="geometry">
            <mxPoint x="-10" y="-7" as="offset" />
          </mxGeometry>
        </mxCell>
        <mxCell id="VEP944i0mX4ukVrG3i8q-108" value="" style="endArrow=classic;html=1;rounded=0;" edge="1" parent="1">
          <mxGeometry relative="1" as="geometry">
            <mxPoint x="1070" y="1340" as="sourcePoint" />
            <mxPoint x="1170" y="1340" as="targetPoint" />
          </mxGeometry>
        </mxCell>
        <mxCell id="VEP944i0mX4ukVrG3i8q-109" value="" style="shape=message;html=1;outlineConnect=0;" vertex="1" parent="VEP944i0mX4ukVrG3i8q-108">
          <mxGeometry width="20" height="14" relative="1" as="geometry">
            <mxPoint x="-10" y="-7" as="offset" />
          </mxGeometry>
        </mxCell>
      </root>
    </mxGraphModel>
  </diagram>
</mxfile>
